<svg viewBox="0 0 70 200" xmlns="http://www.w3.org/2000/svg">
  <path fill="#F46197" d="M25.3,-42.9C34,-38.8,43.2,-34.5,49.8,-27.3C56.5,-20.1,60.6,-10.1,62.5,1.1C64.4,12.2,63.9,24.5,59.3,35.2C54.7,45.9,46,55.1,35.4,60.4C24.8,65.7,12.4,67.1,-0.8,68.5C-14.1,70,-28.1,71.5,-40.8,67.4C-53.4,63.3,-64.6,53.6,-67.6,41.4C-70.6,29.2,-65.3,14.6,-58.8,3.8C-52.3,-7.1,-44.5,-14.1,-38.7,-21.5C-33,-28.9,-29.3,-36.6,-23.2,-42.2C-17,-47.8,-8.5,-51.4,-0.1,-51.2C8.3,-51,16.6,-47,25.3,-42.9Z" transform="translate(100 100)" />
</svg>