<?xml version="1.0" encoding="UTF-8"?>
<svg xmlns="http://www.w3.org/2000/svg" xmlns:xlink="http://www.w3.org/1999/xlink" width="1000pt" height="1000pt" viewBox="0 0 1000 1000" version="1.1">
<g id="surface1">
<path style=" stroke:none;fill-rule:nonzero;fill:rgb(95.686275%,38.039216%,59.215686%);fill-opacity:1;" d="M 650.5 266.5 C 706 301.5 769.5 324.5 790.5 368 C 811.5 411.5 790 475 793 551 C 795.5 626.5 822.5 715 796.5 772 C 770.5 829 691 855 617 858.5 C 543 862 474 842.5 419.5 810 C 365 777.5 325.5 731.5 259 689.5 C 193 647.5 100.5 609 67.5 546.5 C 34.5 484.5 61 398 104 325 C 146.5 252 205.5 192.5 274 164 C 343 135 421.5 137 484.5 161 C 547.5 185.5 595 231.5 650.5 266.5 Z M 650.5 266.5 "/>
</g>
</svg>
