<?xml version="1.0" standalone="no"?>
<svg viewBox="0 0 200 200" xmlns="http://www.w3.org/2000/svg">
  <path fill="#FF0066" d="M34.1,-61C44.1,-53.2,52.1,-43.9,59.2,-33.5C66.4,-23.1,72.8,-11.6,72.7,-0.1C72.5,11.4,65.9,22.8,58.3,32.5C50.7,42.2,42.1,50.2,32.2,59.8C22.4,69.4,11.2,80.7,-2.1,84.4C-15.5,88.1,-31,84.3,-39.9,74.1C-48.8,64,-51.2,47.4,-56.3,34C-61.5,20.6,-69.5,10.3,-71.8,-1.3C-74.1,-13,-70.8,-26,-62.2,-33.4C-53.6,-40.9,-39.7,-42.8,-28.5,-49.8C-17.2,-56.9,-8.6,-69.1,1.7,-72C12,-75,24,-68.7,34.1,-61Z" transform="translate(100 100)" />
</svg>
