<?xml version="1.0" standalone="no"?>
<svg viewBox="0 0 200 200" xmlns="http://www.w3.org/2000/svg">
  <path fill="#FF0066" d="M45,-76.9C58.1,-70.3,68.4,-57.9,74.5,-44.1C80.5,-30.3,82.4,-15.1,82.9,0.3C83.5,15.7,82.6,31.5,75.5,43.4C68.3,55.2,54.7,63.2,41,69.5C27.4,75.8,13.7,80.5,0.3,79.9C-13.1,79.4,-26.2,73.7,-36.7,65.6C-47.2,57.5,-55.1,46.9,-65.1,35.6C-75.1,24.3,-87.1,12.1,-88.8,-1C-90.5,-14.1,-81.8,-28.1,-71.4,-38.7C-60.9,-49.3,-48.8,-56.3,-36.6,-63.4C-24.4,-70.5,-12.2,-77.7,1.9,-80.9C15.9,-84.1,31.9,-83.5,45,-76.9Z" transform="translate(100 100)" />
</svg>
